<?xml version="1.0" encoding="UTF-8"?>
<svg version="1.1" xmlns="http://www.w3.org/2000/svg" width="596" height="843">
<path d="M0 0 C196.68 0 393.36 0 596 0 C596 278.19 596 556.38 596 843 C399.32 843 202.64 843 0 843 C0 564.81 0 286.62 0 0 Z " fill="#16243E" transform="translate(0,0)"/>
<path d="M0 0 C1.38001714 0.01494187 2.76007704 0.02631971 4.14015198 0.03430176 C7.75311765 0.06468662 11.36346428 0.14311789 14.97540283 0.23193359 C18.66878837 0.31412864 22.36260193 0.35038408 26.05664062 0.390625 C33.29024994 0.47613724 40.52170962 0.61246414 47.75390625 0.78125 C48.01011359 11.23034757 48.2048925 21.67868408 48.32384014 32.13029671 C48.38096601 36.98497502 48.45828423 41.8374866 48.58374023 46.69091797 C48.70431435 51.38550567 48.76924533 56.07802615 48.79755592 60.77404404 C48.8176973 62.55468131 48.8570285 64.33522036 48.91693687 66.11496353 C49.29801177 77.91811153 47.77258025 85.00122971 39.59846497 93.77487183 C39.12535007 94.26520967 38.65223518 94.75554752 38.16478348 95.26074409 C35.86269062 97.74171531 33.89679234 100.44103959 31.87890625 103.15625 C27.55752085 108.8096643 23.07838732 114.32582028 18.57519531 119.83496094 C14.35414048 125.01116313 10.26011406 130.26989397 6.20703125 135.578125 C-0.64597024 144.54992888 -7.7011444 153.36545851 -14.76293945 162.1730957 C-19.51103637 168.09996697 -24.20409072 174.06909633 -28.88720703 180.04736328 C-31.17062678 182.96091827 -33.45860178 185.87089193 -35.74609375 188.78125 C-36.66278198 189.94789973 -37.57944865 191.11456639 -38.49609375 192.28125 C-43.99609375 199.28125 -49.49609375 206.28125 -54.99609375 213.28125 C-55.44968262 213.85858887 -55.90327148 214.43592773 -56.37060547 215.03076172 C-57.28872729 216.19919152 -58.20702201 217.36748548 -59.12548828 218.53564453 C-61.39631744 221.42425506 -63.66424321 224.31504548 -65.92578125 227.2109375 C-70.82342728 233.47512019 -75.77863721 239.68515974 -80.80859375 245.84375 C-85.63929683 251.75907058 -90.34312239 257.75358882 -94.9765625 263.82421875 C-98.33299459 268.19740136 -101.78820734 272.48822536 -105.24609375 276.78125 C-107.39140014 279.46943497 -109.53579149 282.15834638 -111.6796875 284.84765625 C-113.24609375 286.78125 -113.24609375 286.78125 -114.24609375 287.78125 C-116.27103606 287.87534479 -118.29929245 287.89868122 -120.32641602 287.89477539 C-122.27832603 287.89466209 -122.27832603 287.89466209 -124.26966858 287.89454651 C-125.70061277 287.88943909 -127.13155657 287.88422308 -128.5625 287.87890625 C-130.01838635 287.87704203 -131.47427332 287.87561815 -132.93016052 287.87461853 C-136.76888754 287.87079365 -140.60757694 287.86096364 -144.44628906 287.84991455 C-148.36067191 287.83969978 -152.27506081 287.83512077 -156.18945312 287.83007812 C-163.87501718 287.81934134 -171.5605502 287.80226529 -179.24609375 287.78125 C-179.54960261 278.03598459 -179.77941782 268.29238604 -179.91965199 258.54339695 C-179.98702027 254.01443658 -180.07809573 249.48874739 -180.22680664 244.96166992 C-181.34211822 210.10061051 -181.34211822 210.10061051 -173.0703125 200.27734375 C-171.42182244 198.53814101 -169.73749576 196.92063071 -167.93527222 195.3420105 C-165.00213626 192.63186304 -162.67355113 189.43890465 -160.24609375 186.28125 C-159.25912688 185.04998144 -158.2698475 183.82055975 -157.27734375 182.59375 C-154.03408077 178.53967127 -150.88720823 174.41468805 -147.74609375 170.28125 C-143.6488118 164.88957731 -139.49684596 159.5527997 -135.24609375 154.28125 C-130.97789973 148.98671568 -126.80306788 143.62981043 -122.68359375 138.21875 C-115.41438256 128.67361409 -108.06291644 119.20717065 -100.4609375 109.92407227 C-95.06001637 103.3285325 -89.84340797 96.63896314 -84.77026367 89.78833008 C-80.65288769 84.25630411 -76.3376415 78.90632003 -71.96533203 73.57470703 C-67.77163612 68.45383774 -63.71578362 63.24477932 -59.69921875 57.984375 C-52.90017412 49.08321029 -45.89896022 40.34037723 -38.87866211 31.61352539 C-34.44208517 26.07479124 -30.1348871 20.44082435 -25.87353516 14.76635742 C-24.89091027 13.46706693 -23.89359783 12.17869579 -22.87893677 10.90426636 C-21.23088157 8.82877927 -21.23088157 8.82877927 -19.91241455 6.67076111 C-14.64438192 -0.81532434 -8.52434078 -0.27205317 0 0 Z " fill="#F69839" transform="translate(363.24609375,307.21875)"/>
<path d="M0 0 C46.86 0 93.72 0 142 0 C140.48720109 3.02559781 139.32498892 5.01455995 137.2421875 7.5390625 C136.70295654 8.19696777 136.16372559 8.85487305 135.6081543 9.53271484 C135.03621338 10.22316895 134.46427246 10.91362305 133.875 11.625 C132.69113461 13.06748544 131.50754012 14.51019325 130.32421875 15.953125 C129.75106934 16.64986328 129.17791992 17.34660156 128.58740234 18.06445312 C125.96681592 21.25977905 123.39199803 24.49106824 120.81640625 27.72265625 C119.57808069 29.27522357 118.33571883 30.82457806 117.08984375 32.37109375 C112.96517858 37.49617473 108.92268412 42.67927044 104.92236328 47.90161133 C101.81146735 51.95829996 98.66455039 55.98506383 95.5 60 C91.77180015 64.73472756 88.05890814 69.48070238 84.375 74.25 C83.94896484 74.79914063 83.52292969 75.34828125 83.08398438 75.9140625 C80.83979411 78.82636156 80.83979411 78.82636156 79 82 C52.93 82 26.86 82 0 82 C0 54.94 0 27.88 0 0 Z " fill="#3A63AF" transform="translate(184,308)"/>
<path d="M0 0 C0.69760311 0.01799054 1.39520622 0.03598108 2.11394882 0.05451679 C3.2446612 0.05361278 3.2446612 0.05361278 4.39821625 0.05269051 C6.83253767 0.05641559 9.26493203 0.09445046 11.69890976 0.1338625 C13.20394596 0.14121626 14.70899493 0.14631571 16.21404648 0.14912128 C21.78732124 0.17530882 27.36032204 0.24511542 32.93328476 0.30964375 C45.39078476 0.41276875 57.84828476 0.51589375 70.68328476 0.62214375 C70.68328476 27.35214375 70.68328476 54.08214375 70.68328476 81.62214375 C24.81328476 81.62214375 -21.05671524 81.62214375 -68.31671524 81.62214375 C-66.51420415 78.01712156 -64.75334099 75.55859891 -62.19171524 72.49714375 C-61.38347305 71.5226125 -60.57523087 70.54808125 -59.74249649 69.54401875 C-58.94198868 68.5798 -58.14148087 67.61558125 -57.31671524 66.62214375 C-52.52747989 60.73055055 -47.86063013 54.74962493 -43.24103165 48.72468281 C-36.86131074 40.41090425 -30.42057044 32.14612039 -23.75421524 24.05964375 C-19.57411687 18.98488403 -15.56568399 13.79389988 -11.57843399 8.56745625 C-10.8320668 7.59550312 -10.08569962 6.62355 -9.31671524 5.62214375 C-8.76332474 4.74810398 -8.20993423 3.87406422 -7.63977432 2.9735384 C-5.03107793 0.33302236 -3.65269679 0.03908651 0 0 Z " fill="#3A63AF" transform="translate(340.3167152404785,513.3778562545776)"/>
<path d="M0 0 C20.46 0 40.92 0 62 0 C62 13.86 62 27.72 62 42 C41.54 42 21.08 42 0 42 C0 28.14 0 14.28 0 0 Z " fill="#F4993C" transform="translate(349,248)"/>
<path d="M0 0 C1.38289038 0.01119942 2.76580466 0.01973609 4.14872742 0.02572632 C7.777623 0.04856742 11.40506324 0.10744509 15.03338623 0.1739502 C18.74015618 0.23547756 22.44716279 0.26276333 26.15429688 0.29296875 C33.41993225 0.35719706 40.68437111 0.45951422 47.94921875 0.5859375 C48.15860634 11.06977199 48.31809351 21.55310169 48.4155283 32.03860855 C48.46231552 36.90865672 48.52567582 41.77726487 48.62817383 46.64648438 C48.72663641 51.3539601 48.77991495 56.06005932 48.80311394 60.76848602 C48.81962522 62.55624797 48.85186821 64.3439424 48.90078926 66.13111115 C49.19176739 77.21111642 48.38323533 84.09571128 40.98472595 92.63275146 C38.94921875 94.5859375 38.94921875 94.5859375 37.94921875 94.5859375 C37.94921875 92.9359375 37.94921875 91.2859375 37.94921875 89.5859375 C38.60921875 89.5859375 39.26921875 89.5859375 39.94921875 89.5859375 C39.61921875 88.5959375 39.28921875 87.6059375 38.94921875 86.5859375 C40.59921875 86.2559375 42.24921875 85.9259375 43.94921875 85.5859375 C43.94921875 84.9259375 43.94921875 84.2659375 43.94921875 83.5859375 C44.60921875 83.5859375 45.26921875 83.5859375 45.94921875 83.5859375 C45.94921875 56.8559375 45.94921875 30.1259375 45.94921875 2.5859375 C26.14921875 2.5859375 6.34921875 2.5859375 -14.05078125 2.5859375 C-14.05078125 3.2459375 -14.05078125 3.9059375 -14.05078125 4.5859375 C-13.06078125 4.5859375 -12.07078125 4.5859375 -11.05078125 4.5859375 C-11.05078125 5.2459375 -11.05078125 5.9059375 -11.05078125 6.5859375 C-12.04078125 6.5859375 -13.03078125 6.5859375 -14.05078125 6.5859375 C-14.05078125 7.2459375 -14.05078125 7.9059375 -14.05078125 8.5859375 C-13.39078125 8.5859375 -12.73078125 8.5859375 -12.05078125 8.5859375 C-12.38078125 9.2459375 -12.71078125 9.9059375 -13.05078125 10.5859375 C-15.36078125 10.5859375 -17.67078125 10.5859375 -20.05078125 10.5859375 C-20.05078125 11.2459375 -20.05078125 11.9059375 -20.05078125 12.5859375 C-21.70078125 13.2459375 -23.35078125 13.9059375 -25.05078125 14.5859375 C-24.1571361 13.37598496 -23.26072346 12.16807639 -22.36328125 10.9609375 C-21.86441406 10.28804688 -21.36554688 9.61515625 -20.8515625 8.921875 C-20.25730469 8.15101563 -19.66304688 7.38015625 -19.05078125 6.5859375 C-18.4784375 5.55984375 -17.90609375 4.53375 -17.31640625 3.4765625 C-13.06934474 -1.54771486 -6.00618267 -0.1426269 0 0 Z " fill="#E69B58" transform="translate(363.05078125,307.4140625)"/>
<path d="M0 0 C0.69760311 0.01799054 1.39520622 0.03598108 2.11394882 0.05451679 C3.2446612 0.05361278 3.2446612 0.05361278 4.39821625 0.05269051 C6.83253767 0.05641559 9.26493203 0.09445046 11.69890976 0.1338625 C13.20394596 0.14121626 14.70899493 0.14631571 16.21404648 0.14912128 C21.78732124 0.17530882 27.36032204 0.24511542 32.93328476 0.30964375 C45.39078476 0.41276875 57.84828476 0.51589375 70.68328476 0.62214375 C70.68328476 27.35214375 70.68328476 54.08214375 70.68328476 81.62214375 C24.81328476 81.62214375 -21.05671524 81.62214375 -68.31671524 81.62214375 C-66.3645509 77.71781506 -64.44284917 75.58374431 -61.31671524 72.62214375 C-62.39072632 75.53731666 -63.094817 77.4002455 -65.31671524 79.62214375 C-21.09671524 79.62214375 23.12328476 79.62214375 68.68328476 79.62214375 C69.17828476 41.01214375 69.17828476 41.01214375 69.68328476 1.62214375 C57.72078476 1.68401875 45.75828476 1.74589375 33.43328476 1.80964375 C29.65858749 1.81633076 25.88389023 1.82301777 21.9948082 1.82990742 C18.60588867 1.85979013 18.60588867 1.85979013 15.2170372 1.89626789 C13.70976442 1.90933092 12.20238722 1.91260564 10.69506454 1.90810871 C8.40871743 1.90320017 6.12462753 1.92952196 3.8385582 1.96271992 C1.90662613 1.97271267 1.90662613 1.97271267 -0.06433487 1.9829073 C-3.47641654 2.32959365 -3.47641654 2.32959365 -5.60766983 5.01492023 C-6.17165482 5.87530399 -6.7356398 6.73568775 -7.31671524 7.62214375 C-8.14171524 8.40589375 -8.96671524 9.18964375 -9.81671524 9.99714375 C-12.70186681 13.02655289 -14.36557754 15.93666141 -16.31671524 19.62214375 C-16.97671524 19.62214375 -17.63671524 19.62214375 -18.31671524 19.62214375 C-18.64671524 20.28214375 -18.97671524 20.94214375 -19.31671524 21.62214375 C-19.31671524 17.45658739 -17.06194343 15.35916991 -14.56671524 12.24714375 C-13.90155899 11.40022968 -13.90155899 11.40022968 -13.22296524 10.53620625 C-11.92870731 8.89173735 -10.62480573 7.25562756 -9.31671524 5.62214375 C-8.78167374 4.77351261 -8.24663223 3.92488148 -7.69537735 3.05053425 C-5.04692921 0.34671755 -3.7202788 0.03980969 0 0 Z " fill="#42639E" transform="translate(340.3167152404785,513.3778562545776)"/>
<path d="M0 0 C15.93211037 -0.04010881 15.93211037 -0.04010881 22.70117188 -0.04882812 C27.3277297 -0.05481579 31.95426782 -0.06191404 36.58081055 -0.07543945 C40.30903401 -0.086271 44.03723634 -0.0922774 47.76547432 -0.09487724 C49.19089656 -0.09673101 50.61631759 -0.10035071 52.04173088 -0.10573006 C54.03163408 -0.11294393 56.02155834 -0.11340808 58.01147461 -0.11352539 C59.14620712 -0.115746 60.28093964 -0.11796661 61.45005798 -0.12025452 C64 0 64 0 65 1 C65.12185143 2.34983748 65.17766831 3.70574701 65.20532227 5.06079102 C65.2352401 6.35201622 65.2352401 6.35201622 65.26576233 7.66932678 C65.28247482 8.60473801 65.29918732 9.54014923 65.31640625 10.50390625 C65.33718735 11.45692123 65.35796844 12.40993622 65.37937927 13.39183044 C65.44498177 16.4486441 65.50380918 19.50554656 65.5625 22.5625 C65.60567506 24.62956663 65.64928901 26.69662414 65.69335938 28.76367188 C65.80067401 33.84235595 65.90191091 38.9211297 66 44 C63.23149177 45.38425411 60.99580816 45.11959962 57.89794922 45.11352539 C56.61677216 45.11344986 55.33559509 45.11337433 54.01559448 45.11329651 C52.61195843 45.10818948 51.20832277 45.10297348 49.8046875 45.09765625 C48.37265065 45.09579146 46.94061316 45.09436784 45.50857544 45.09336853 C41.73726646 45.08954819 37.96599593 45.07972202 34.19470215 45.06866455 C29.67094212 45.05664277 25.14716925 45.05204589 20.62339783 45.04621124 C13.74890514 45.03651001 6.87449682 45.0173501 0 45 C0 30.15 0 15.3 0 0 Z M1 1 C1 14.86 1 28.72 1 43 C21.46 43 41.92 43 63 43 C63 29.14 63 15.28 63 1 C42.54 1 22.08 1 1 1 Z " fill="#44312A" transform="translate(348,247)"/>
<path d="M0 0 C46.86 0 93.72 0 142 0 C141.34 1.32 140.68 2.64 140 4 C139.01 3.01 139.01 3.01 138 2 C135.50803227 1.68494039 135.50803227 1.68494039 132.55844116 1.7215271 C131.40295273 1.71036362 130.24746429 1.69920013 129.05696106 1.68769836 C127.78310043 1.68553818 126.50923981 1.68337799 125.19677734 1.68115234 C123.84673967 1.67185786 122.49670777 1.66168992 121.14668274 1.65071106 C117.47544293 1.62334264 113.80424162 1.60824152 110.13292646 1.59528303 C106.29850297 1.57968229 102.46415847 1.55288241 98.62979126 1.5272522 C91.36607261 1.48041009 84.10233919 1.44369236 76.8385464 1.41057932 C67.02496209 1.36526051 57.21147535 1.30436848 47.39797211 1.24433136 C31.93203024 1.15012576 16.46606087 1.07678473 1 1 C1 27.4 1 53.8 1 81 C26.74 81 52.48 81 79 81 C79 81.33 79 81.66 79 82 C52.93 82 26.86 82 0 82 C0 54.94 0 27.88 0 0 Z " fill="#2F4C82" transform="translate(184,308)"/>
<path d="M0 0 C0.33 0.66 0.66 1.32 1 2 C0 5 0 5 -3 7 C-4.17917957 10.53753872 -4.16093747 13.39888168 -4.20532227 17.13354492 C-4.21522186 17.85574722 -4.22512146 18.57794952 -4.23532104 19.32203674 C-4.26689759 21.70814745 -4.29167822 24.09427806 -4.31640625 26.48046875 C-4.3369791 28.13528459 -4.35797566 29.79009521 -4.37937927 31.44490051 C-4.43456575 35.79975153 -4.48399013 40.15464971 -4.53222656 44.50958252 C-4.59130018 49.7350963 -4.65750933 54.96052393 -4.72252655 60.18596649 C-4.82049302 68.12392503 -4.90937846 76.0619389 -5 84 C16.12 84 37.24 84 59 84 C58.67 84.66 58.34 85.32 58 86 C36.55 86 15.1 86 -7 86 C-7.28076167 67.14440308 -7.28076167 67.14440308 -7.34179688 59.06835938 C-7.38354343 53.57072287 -7.43277156 48.07390724 -7.52807617 42.5769043 C-7.60448312 38.14181505 -7.64606231 33.70760665 -7.6641407 29.27190971 C-7.67701317 27.5850177 -7.70215097 25.89817056 -7.7401104 24.21165657 C-8.08489615 8.24916499 -8.08489615 8.24916499 -1.50721741 1.34568787 C-1.00983566 0.90161087 -0.51245392 0.45753387 0 0 Z " fill="#D79150" transform="translate(191,509)"/>
<path d="M0 0 C1.38289038 0.01119942 2.76580466 0.01973609 4.14872742 0.02572632 C7.777623 0.04856742 11.40506324 0.10744509 15.03338623 0.1739502 C18.74015618 0.23547756 22.44716279 0.26276333 26.15429688 0.29296875 C33.41993225 0.35719706 40.68437111 0.45951422 47.94921875 0.5859375 C47.94921875 0.9159375 47.94921875 1.2459375 47.94921875 1.5859375 C41.37839275 2.78553871 34.89877501 2.71307016 28.234375 2.68359375 C27.02349716 2.6821788 25.81261932 2.68076385 24.56504822 2.67930603 C20.71391281 2.67372776 16.86283646 2.6611792 13.01171875 2.6484375 C10.39388105 2.64341969 7.77604244 2.63885728 5.15820312 2.63476562 C-1.24481167 2.62376544 -7.64779224 2.60704894 -14.05078125 2.5859375 C-14.05078125 3.2459375 -14.05078125 3.9059375 -14.05078125 4.5859375 C-13.06078125 4.5859375 -12.07078125 4.5859375 -11.05078125 4.5859375 C-11.05078125 5.2459375 -11.05078125 5.9059375 -11.05078125 6.5859375 C-12.04078125 6.5859375 -13.03078125 6.5859375 -14.05078125 6.5859375 C-14.05078125 7.2459375 -14.05078125 7.9059375 -14.05078125 8.5859375 C-13.39078125 8.5859375 -12.73078125 8.5859375 -12.05078125 8.5859375 C-12.38078125 9.2459375 -12.71078125 9.9059375 -13.05078125 10.5859375 C-15.36078125 10.5859375 -17.67078125 10.5859375 -20.05078125 10.5859375 C-20.05078125 11.2459375 -20.05078125 11.9059375 -20.05078125 12.5859375 C-21.70078125 13.2459375 -23.35078125 13.9059375 -25.05078125 14.5859375 C-24.1571361 13.37598496 -23.26072346 12.16807639 -22.36328125 10.9609375 C-21.86441406 10.28804688 -21.36554688 9.61515625 -20.8515625 8.921875 C-20.25730469 8.15101563 -19.66304688 7.38015625 -19.05078125 6.5859375 C-18.4784375 5.55984375 -17.90609375 4.53375 -17.31640625 3.4765625 C-13.06934474 -1.54771486 -6.00618267 -0.1426269 0 0 Z " fill="#C9884D" transform="translate(363.05078125,307.4140625)"/>
<path d="M0 0 C0 3.58371915 -0.74478337 4.27587204 -2.9375 7 C-4.90175833 9.45184019 -5.99335342 10.98006027 -7 14 C-29.11 14 -51.22 14 -74 14 C-74 13.34 -74 12.68 -74 12 C-73.20566055 12.01189865 -72.41132111 12.0237973 -71.59291077 12.03605652 C-64.07518007 12.13882022 -56.55982703 12.18815587 -49.04146671 12.17878246 C-45.17668913 12.17581394 -41.31424283 12.19287351 -37.44995117 12.25708008 C-33.71420534 12.3183911 -29.98181908 12.32529401 -26.24572563 12.29583168 C-24.82681269 12.29394056 -23.40773261 12.31105097 -21.9893055 12.34822655 C-13.34375713 12.57915529 -13.34375713 12.57915529 -6.06369019 8.46450806 C-3.81684488 5.73552588 -1.83749101 3.01670324 0 0 Z " fill="#3F2C24" transform="translate(258,583)"/>
<path d="M0 0 C45.54 0 91.08 0 138 0 C137.34 1.32 136.68 2.64 136 4 C135.01 3.01 135.01 3.01 134 2 C131.55834858 1.6850896 131.55834858 1.6850896 128.67233276 1.7215271 C127.54208679 1.71036362 126.41184082 1.69920013 125.24734497 1.68769836 C124.00153656 1.68553818 122.75572815 1.68337799 121.47216797 1.68115234 C120.16489746 1.67110672 118.85762695 1.6610611 117.51074219 1.65071106 C113.92007859 1.62334414 110.32945437 1.60824196 106.73871374 1.59528303 C102.98837089 1.57968163 99.2381088 1.55288196 95.48782349 1.5272522 C88.38347735 1.48041126 81.27911611 1.44369296 74.17469418 1.41057932 C66.0876902 1.3723954 58.00076723 1.32297553 49.91383147 1.27259517 C33.27594577 1.1691963 16.63801519 1.07996188 0 1 C0 0.67 0 0.34 0 0 Z " fill="#35538C" transform="translate(188,308)"/>
<path d="M0 0 C0.99 0.495 0.99 0.495 2 1 C0.47589111 3.46452332 0.47589111 3.46452332 -2 6 C-4.74793693 6.48000095 -6.87305101 6.63654806 -9.61425781 6.56762695 C-10.75630173 6.56872215 -10.75630173 6.56872215 -11.92141724 6.56983948 C-14.43271661 6.56636179 -16.94215058 6.52749542 -19.453125 6.48828125 C-21.19617703 6.47895369 -22.93924218 6.47183731 -24.68231201 6.46684265 C-29.2660757 6.4477682 -33.84904494 6.39866398 -38.43249512 6.34332275 C-43.11113742 6.29213965 -47.78990832 6.26933064 -52.46875 6.24414062 C-61.64618204 6.19054534 -70.82302491 6.10522741 -80 6 C-80 4.35 -80 2.7 -80 1 C-79.67 2.32 -79.34 3.64 -79 5 C-69.29006709 4.96196633 -59.58052045 4.90263882 -49.87089157 4.81609726 C-45.36231781 4.77658224 -40.85394054 4.74441364 -36.34521484 4.72900391 C-31.99426964 4.71386363 -27.64386447 4.67946547 -23.29315948 4.63169098 C-21.63302554 4.61684992 -19.97281451 4.60895742 -18.31261444 4.60811615 C-15.98744587 4.60575281 -13.66377745 4.57872744 -11.33886719 4.54589844 C-10.6519429 4.5509288 -9.96501862 4.55595917 -9.25727844 4.56114197 C-5.80579074 4.48570543 -4.24127102 4.19960875 -1.5413208 1.96588135 C-1.03268494 1.3171405 -0.52404907 0.66839966 0 0 Z " fill="#3F61A0" transform="translate(265,383)"/>
<path d="M0 0 C1.65 0 3.3 0 5 0 C2.71014122 3.98139962 0.12926036 7.63865759 -2.625 11.3125 C-3.03234375 11.86228516 -3.4396875 12.41207031 -3.859375 12.97851562 C-4.88015236 14.33898876 -5.93697418 15.67227651 -7 17 C-7.33 17 -7.66 17 -8 17 C-8 15.02 -8 13.04 -8 11 C-7.01 11.33 -6.02 11.66 -5 12 C-5 9.36 -5 6.72 -5 4 C-3.68 4 -2.36 4 -1 4 C-0.67 2.68 -0.34 1.36 0 0 Z " fill="#F3983C" transform="translate(331,484)"/>
<path d="M0 0 C0 4.35273195 -2.65118116 6.60750695 -5.3125 9.8125 C-8.83153498 14.06712681 -11.5493118 18.01643589 -14 23 C-16.1875 23.875 -16.1875 23.875 -18 24 C-16.24363556 19.8710029 -13.46503188 16.59968132 -10.6875 13.125 C-10.21376953 12.52558594 -9.74003906 11.92617188 -9.25195312 11.30859375 C-6.22469444 7.49035502 -3.13282608 3.73200047 0 0 Z " fill="#3A2726" transform="translate(301,529)"/>
<path d="M0 0 C0.66 0.33 1.32 0.66 2 1 C1.16855469 1.99580078 1.16855469 1.99580078 0.3203125 3.01171875 C-0.76636719 4.33623047 -0.76636719 4.33623047 -1.875 5.6875 C-2.59429687 6.55761719 -3.31359375 7.42773438 -4.0546875 8.32421875 C-5.9021565 10.86541607 -6.91813569 13.0760424 -8 16 C-10 18.8125 -10 18.8125 -12 21 C-12.66 21 -13.32 21 -14 21 C-13.60128776 15.80701616 -10.89269668 13.08180088 -7.5625 9.375 C-3.5698141 4.85628715 -3.5698141 4.85628715 0 0 Z " fill="#152950" transform="translate(277,370)"/>
<path d="M0 0 C0 3 0 3 -1 5 C-1.66 5 -2.32 5 -3 5 C-3.2475 5.94875 -3.495 6.8975 -3.75 7.875 C-5 11 -5 11 -7.125 12.375 C-7.74375 12.58125 -8.3625 12.7875 -9 13 C-8.67 14.65 -8.34 16.3 -8 18 C-9.65 18 -11.3 18 -13 18 C-13 18.66 -13 19.32 -13 20 C-13.66 19.67 -14.32 19.34 -15 19 C-12.87742559 16.20648152 -10.7515292 13.41550878 -8.625 10.625 C-8.02171875 9.8309375 -7.4184375 9.036875 -6.796875 8.21875 C-6.21679688 7.45820313 -5.63671875 6.69765625 -5.0390625 5.9140625 C-4.50490723 5.2123291 -3.97075195 4.5105957 -3.42041016 3.78759766 C-2 2 -2 2 0 0 Z " fill="#322829" transform="translate(368,444)"/>
<path d="M0 0 C-1.30855553 1.83615081 -2.62194462 3.66885789 -3.9375 5.5 C-4.66839844 6.5209375 -5.39929688 7.541875 -6.15234375 8.59375 C-6.76207031 9.3878125 -7.37179687 10.181875 -8 11 C-8.33 11 -8.66 11 -9 11 C-8.125 3.375 -8.125 3.375 -7 0 C-3.86650268 -1.04449911 -3.01031744 -0.93423645 0 0 Z " fill="#26262E" transform="translate(346,312)"/>
<path d="M0 0 C2.625 -0.1875 2.625 -0.1875 5 0 C5 0.66 5 1.32 5 2 C4.01 2 3.02 2 2 2 C2 2.66 2 3.32 2 4 C2.66 4 3.32 4 4 4 C3.67 4.66 3.34 5.32 3 6 C0.69 6 -1.62 6 -4 6 C-4 6.66 -4 7.32 -4 8 C-5.65 8.66 -7.3 9.32 -9 10 C-5.375 4.125 -5.375 4.125 -2 3 C-1.34 2.01 -0.68 1.02 0 0 Z " fill="#E99444" transform="translate(347,312)"/>
<path d="M0 0 C0 3.92896395 -1.00299863 7.19893228 -2 11 C-4.64 11.66 -7.28 12.32 -10 13 C-6.73279209 8.61105071 -3.45101522 4.24740335 0 0 Z " fill="#EA974A" transform="translate(314,352)"/>
<path d="M0 0 C1.32 0.33 2.64 0.66 4 1 C2.59023295 4.03852705 0.91129772 6.5939595 -1.125 9.25 C-1.66382813 9.95640625 -2.20265625 10.6628125 -2.7578125 11.390625 C-3.16773438 11.92171875 -3.57765625 12.4528125 -4 13 C-6 10 -6 10 -6 8 C-5.34 8 -4.68 8 -4 8 C-4 7.34 -4 6.68 -4 6 C-2.68 6 -1.36 6 0 6 C0 4.02 0 2.04 0 0 Z " fill="#2D282B" transform="translate(224,460)"/>
<path d="M0 0 C0.66 0.33 1.32 0.66 2 1 C-0.64 4.63 -3.28 8.26 -6 12 C-8 8 -8 8 -7.375 5.8125 C-6 4 -6 4 -3.875 3.25 C-3.25625 3.1675 -2.6375 3.085 -2 3 C-2 2.34 -2 1.68 -2 1 C-1.34 0.67 -0.68 0.34 0 0 Z " fill="#E29549" transform="translate(375,432)"/>
<path d="M0 0 C0.598125 0.226875 1.19625 0.45375 1.8125 0.6875 C0.25749019 4.50434226 -2.22345495 6.87945732 -5.1875 9.6875 C-5.5508218 3.26881488 -5.5508218 3.26881488 -3.9375 0.6875 C-2.1875 -0.3125 -2.1875 -0.3125 0 0 Z " fill="#E4954A" transform="translate(382.1875,422.3125)"/>
<path d="M0 0 C0.33 0.99 0.66 1.98 1 3 C-0.65234375 5.48046875 -0.65234375 5.48046875 -2.9375 8.1875 C-3.68902344 9.08855469 -4.44054687 9.98960937 -5.21484375 10.91796875 C-5.80394531 11.60503906 -6.39304687 12.29210937 -7 13 C-7.61328125 11.171875 -7.61328125 11.171875 -8 9 C-6.1875 6.25 -6.1875 6.25 -4 4 C-3.34 4 -2.68 4 -2 4 C-2 3.34 -2 2.68 -2 2 C-1.34 2 -0.68 2 0 2 C0 1.34 0 0.68 0 0 Z " fill="#3F609F" transform="translate(322,310)"/>
<path d="M0 0 C0.33 0.99 0.66 1.98 1 3 C-0.61594832 5.04119788 -2.2856382 7.04072937 -4 9 C-4.33 9.99 -4.66 10.98 -5 12 C-6.62332967 13.38576923 -8.28724465 14.72641268 -10 16 C-10.66 15.67 -11.32 15.34 -12 15 C-11.30132812 14.16855469 -10.60265625 13.33710937 -9.8828125 12.48046875 C-8.96346318 11.38287824 -8.04419668 10.28521835 -7.125 9.1875 C-6.66480469 8.64029297 -6.20460938 8.09308594 -5.73046875 7.52929688 C-3.68242038 5.08054339 -1.77281117 2.65921675 0 0 Z " fill="#3B2926" transform="translate(314,512)"/>
<path d="M0 0 C0.99 0.33 1.98 0.66 3 1 C1.69118353 2.66956087 0.37785174 4.33558304 -0.9375 6 C-1.66839844 6.928125 -2.39929688 7.85625 -3.15234375 8.8125 C-3.76207031 9.534375 -4.37179687 10.25625 -5 11 C-5.33 11 -5.66 11 -6 11 C-6 9.35 -6 7.7 -6 6 C-5.34 6 -4.68 6 -4 6 C-4.33 5.01 -4.66 4.02 -5 3 C-3.35 2.67 -1.7 2.34 0 2 C0 1.34 0 0.68 0 0 Z " fill="#DF944B" transform="translate(407,391)"/>
<path d="M0 0 C0.33 0.99 0.66 1.98 1 3 C-0.765625 5.69921875 -0.765625 5.69921875 -3.25 8.6875 C-4.05953125 9.68136719 -4.8690625 10.67523438 -5.703125 11.69921875 C-6.84007812 12.83810547 -6.84007812 12.83810547 -8 14 C-8.99 14 -9.98 14 -11 14 C-7.37 9.38 -3.74 4.76 0 0 Z " fill="#132B4B" transform="translate(314,323)"/>
<path d="M0 0 C0.66 0 1.32 0 2 0 C2.8125 1.625 2.8125 1.625 3 4 C1.53181864 6.24609835 -0.15852858 8.02378677 -2 10 C-2.66 8.68 -3.32 7.36 -4 6 C-3.34 5.34 -2.68 4.68 -2 4 C-1.34 4.33 -0.68 4.66 0 5 C0 4.34 0 3.68 0 3 C-0.66 2.67 -1.32 2.34 -2 2 C-1.34 1.34 -0.68 0.68 0 0 Z " fill="#242532" transform="translate(188,506)"/>
<path d="M0 0 C1.32 0 2.64 0 4 0 C2.23867546 4.00301032 -0.26132483 7.6028977 -3 11 C-3.33 11 -3.66 11 -4 11 C-4 9.35 -4 7.7 -4 6 C-3.01 6 -2.02 6 -1 6 C-0.67 4.02 -0.34 2.04 0 0 Z " fill="#2E282C" transform="translate(288,379)"/>
<path d="M0 0 C0.33 0.66 0.66 1.32 1 2 C1.66 2.33 2.32 2.66 3 3 C0.69 5.97 -1.62 8.94 -4 12 C-4.33 11.01 -4.66 10.02 -5 9 C-4.34 9 -3.68 9 -3 9 C-3 7.68 -3 6.36 -3 5 C-2.34 5 -1.68 5 -1 5 C-0.67 3.35 -0.34 1.7 0 0 Z " fill="#DC944D" transform="translate(304,519)"/>
<path d="M0 0 C0.33 0.66 0.66 1.32 1 2 C0.49339844 2.68835938 0.49339844 2.68835938 -0.0234375 3.390625 C-3.36308951 7.98192426 -3.36308951 7.98192426 -6 13 C-6.66 13 -7.32 13 -8 13 C-8.33 13.66 -8.66 14.32 -9 15 C-9 10.9255567 -6.90830751 8.88254967 -4.5 5.8125 C-3.85611328 4.97428711 -3.85611328 4.97428711 -3.19921875 4.11914062 C-2.13921945 2.74114153 -1.07043812 1.36990593 0 0 Z " fill="#3B5D97" transform="translate(330,520)"/>
<path d="M0 0 C1 4 1 4 0 7 C-1.33076989 7.34342449 -2.66431979 7.67619874 -4 8 C-4.99 9.485 -4.99 9.485 -6 11 C-6.66 10.67 -7.32 10.34 -8 10 C-5.36 6.7 -2.72 3.4 0 0 Z " fill="#33272B" transform="translate(408,393)"/>
<path d="M0 0 C1.32 0.33 2.64 0.66 4 1 C2.85793642 2.50287218 1.71125043 4.00223284 0.5625 5.5 C-0.39462891 6.75296875 -0.39462891 6.75296875 -1.37109375 8.03125 C-1.90863281 8.6809375 -2.44617188 9.330625 -3 10 C-3.33 10 -3.66 10 -4 10 C-4 8.02 -4 6.04 -4 4 C-3.01 4.33 -2.02 4.66 -1 5 C-0.67 3.35 -0.34 1.7 0 0 Z " fill="#DE944D" transform="translate(327,491)"/>
<path d="M0 0 C1.65 0 3.3 0 5 0 C3.03681826 3.53372712 0.95929119 6.24479785 -2 9 C-2 7.35 -2 5.7 -2 4 C-1.01 3.67 -0.02 3.34 1 3 C0.67 2.01 0.34 1.02 0 0 Z " fill="#DD934D" transform="translate(388,412)"/>
<path d="M0 0 C1.32 0.33 2.64 0.66 4 1 C3.02433888 2.16959987 2.044375 3.33561177 1.0625 4.5 C0.51722656 5.1496875 -0.02804687 5.799375 -0.58984375 6.46875 C-1.05519531 6.9740625 -1.52054687 7.479375 -2 8 C-2.33 8 -2.66 8 -3 8 C-3 6.35 -3 4.7 -3 3 C-2.34 3 -1.68 3 -1 3 C-0.67 2.01 -0.34 1.02 0 0 Z " fill="#2F272D" transform="translate(326,332)"/>
<path d="M0 0 C0.33 0.66 0.66 1.32 1 2 C0.09373216 3.2989839 -0.82549537 4.58893167 -1.75 5.875 C-2.51570313 6.95394531 -2.51570313 6.95394531 -3.296875 8.0546875 C-5.07503547 10.08570565 -6.52701607 10.97855012 -9 12 C-6 8 -3 4 0 0 Z " fill="#3B5D9B" transform="translate(294,566)"/>
<path d="M0 0 C0.66 1.32 1.32 2.64 2 4 C-0.97 6.475 -0.97 6.475 -4 9 C-4.66 8.67 -5.32 8.34 -6 8 C-4.02 5.36 -2.04 2.72 0 0 Z " fill="#3E5C9F" transform="translate(307,549)"/>
<path d="M0 0 C0.66 0.99 1.32 1.98 2 3 C0.37660195 4.70884005 -1.29319053 6.37446717 -3 8 C-3.66 8 -4.32 8 -5 8 C-3.62845496 5.04590299 -2.01136276 2.55991624 0 0 Z M-6 8 C-6 8.99 -6 9.98 -6 11 C-6.66 10.67 -7.32 10.34 -8 10 C-7.34 9.34 -6.68 8.68 -6 8 Z " fill="#182A4D" transform="translate(292,351)"/>
<path d="M0 0 C0.99 0.33 1.98 0.66 3 1 C0.03 4.96 0.03 4.96 -3 9 C-3.33 8.01 -3.66 7.02 -4 6 C-3.34 6 -2.68 6 -2 6 C-1.7834375 5.071875 -1.7834375 5.071875 -1.5625 4.125 C-1 2 -1 2 0 0 Z " fill="#302827" transform="translate(233,451)"/>
<path d="M0 0 C1.32 0.66 2.64 1.32 4 2 C2.35 3.65 0.7 5.3 -1 7 C-0.67 5.68 -0.34 4.36 0 3 C-0.66 2.67 -1.32 2.34 -2 2 C-1.34 1.34 -0.68 0.68 0 0 Z " fill="#E7964A" transform="translate(358,450)"/>
<path d="M0 0 C1.65 0.33 3.3 0.66 5 1 C2.525 4.465 2.525 4.465 0 8 C-0.66 6.68 -1.32 5.36 -2 4 C-1.01 4 -0.02 4 1 4 C0.67 2.68 0.34 1.36 0 0 Z " fill="#E4974D" transform="translate(363,443)"/>
<path d="M0 0 C0.33 0.66 0.66 1.32 1 2 C-0.1875 4.5625 -0.1875 4.5625 -2 7 C-3.32 7.33 -4.64 7.66 -6 8 C-4.02 5.36 -2.04 2.72 0 0 Z " fill="#DD9451" transform="translate(303,366)"/>
<path d="M0 0 C0.33 1.32 0.66 2.64 1 4 C-0.65 5.32 -2.3 6.64 -4 8 C-4.66 7.67 -5.32 7.34 -6 7 C-4.02 4.69 -2.04 2.38 0 0 Z " fill="#362A2A" transform="translate(278,558)"/>
<path d="M0 0 C0 2.62113708 -0.31292445 4.50935112 -1 7 C-2.65 7.33 -4.3 7.66 -6 8 C-4.02 5.36 -2.04 2.72 0 0 Z " fill="#DC914D" transform="translate(310,357)"/>
<path d="M0 0 C1.98 0.99 1.98 0.99 4 2 C2.25 5.875 2.25 5.875 0 7 C0 4.69 0 2.38 0 0 Z " fill="#2B252D" transform="translate(300,362)"/>
<path d="M0 0 C0.99 0.33 1.98 0.66 3 1 C1.6875 3 1.6875 3 0 5 C-0.99 5 -1.98 5 -3 5 C-1.125 1.125 -1.125 1.125 0 0 Z " fill="#2B242E" transform="translate(286,548)"/>
<path d="M0 0 C2.0625 0.4375 2.0625 0.4375 4 1 C2.35 2.65 0.7 4.3 -1 6 C-1.042721 4.33388095 -1.04063832 2.66617115 -1 1 C-0.67 0.67 -0.34 0.34 0 0 Z " fill="#2B272F" transform="translate(194,500)"/>
<path d="M0 0 C1.2065625 0.0309375 1.2065625 0.0309375 2.4375 0.0625 C0.9525 2.5375 0.9525 2.5375 -0.5625 5.0625 C-1.5525 3.7425 -2.5425 2.4225 -3.5625 1.0625 C-2.5625 0.0625 -2.5625 0.0625 0 0 Z " fill="#E39449" transform="translate(333.5625,483.9375)"/>
<path d="M0 0 C0.33 0.66 0.66 1.32 1 2 C-0.1875 4.5625 -0.1875 4.5625 -2 7 C-3.32 7.33 -4.64 7.66 -6 8 C-4.02 5.36 -2.04 2.72 0 0 Z " fill="#142B53" transform="translate(323,312)"/>
</svg>
